<?xml version="1.0" encoding="UTF-8"?>
<svg xmlns="http://www.w3.org/2000/svg" xmlns:xlink="http://www.w3.org/1999/xlink" width="1471px" height="700px" viewBox="0 0 735 350" version="1.1">
<g id="surface1">
<path style="fill-rule:nonzero;fill:rgb(100%,96.862745%,90.588235%);fill-opacity:1;stroke-width:4;stroke-linecap:butt;stroke-linejoin:miter;stroke:rgb(99.607843%,41.176471%,22.352941%);stroke-opacity:1;stroke-miterlimit:4;" d="M 257.545985 192.194 L 556.499216 192.194 C 560.916281 192.194 564.496841 195.772125 564.496841 200.194 L 564.496841 320.498687 C 564.496841 324.920562 560.916281 328.498687 556.499216 328.498687 L 257.545985 328.498687 C 253.12892 328.498687 249.548361 324.920562 249.548361 320.498687 L 249.548361 200.194 C 249.548361 195.772125 253.12892 192.194 257.545985 192.194 Z M 257.545985 192.194 " transform="matrix(0.49966,0,0,0.5,-123.689358,-95.097)"/>
<path style="fill-rule:nonzero;fill:rgb(100%,96.862745%,90.588235%);fill-opacity:1;stroke-width:4;stroke-linecap:butt;stroke-linejoin:miter;stroke:rgb(99.607843%,41.176471%,22.352941%);stroke-opacity:1;stroke-miterlimit:4;" d="M 596.448249 192.194 L 681.044821 192.194 C 685.461886 192.194 689.042445 195.772125 689.042445 200.194 L 689.042445 320.498687 C 689.042445 324.920562 685.461886 328.498687 681.044821 328.498687 L 596.448249 328.498687 C 592.023366 328.498687 588.442807 324.920562 588.442807 320.498687 L 588.442807 200.194 C 588.442807 195.772125 592.023366 192.194 596.448249 192.194 Z M 596.448249 192.194 " transform="matrix(0.49966,0,0,0.5,-123.689358,-95.097)"/>
<path style="fill-rule:nonzero;fill:rgb(100%,96.862745%,90.588235%);fill-opacity:1;stroke-width:4;stroke-linecap:butt;stroke-linejoin:miter;stroke:rgb(99.607843%,41.176471%,22.352941%);stroke-opacity:1;stroke-miterlimit:4;" d="M 720.993854 192.194 L 829.872558 192.194 C 834.289623 192.194 837.870182 195.772125 837.870182 200.194 L 837.870182 320.498687 C 837.870182 324.920562 834.289623 328.498687 829.872558 328.498687 L 720.993854 328.498687 C 716.576788 328.498687 712.996229 324.920562 712.996229 320.498687 L 712.996229 200.194 C 712.996229 195.772125 716.576788 192.194 720.993854 192.194 Z M 720.993854 192.194 " transform="matrix(0.49966,0,0,0.5,-123.689358,-95.097)"/>
<path style="fill-rule:nonzero;fill:rgb(100%,96.862745%,90.588235%);fill-opacity:1;stroke-width:4;stroke-linecap:butt;stroke-linejoin:miter;stroke:rgb(99.607843%,41.176471%,22.352941%);stroke-opacity:1;stroke-miterlimit:4;" d="M 869.821591 192.194 L 1032.760483 192.194 C 1037.177548 192.194 1040.758108 195.772125 1040.758108 200.194 L 1040.758108 320.498687 C 1040.758108 324.920562 1037.177548 328.498687 1032.760483 328.498687 L 869.821591 328.498687 C 865.404526 328.498687 861.823966 324.920562 861.823966 320.498687 L 861.823966 200.194 C 861.823966 195.772125 865.404526 192.194 869.821591 192.194 Z M 869.821591 192.194 " transform="matrix(0.49966,0,0,0.5,-123.689358,-95.097)"/>
<path style="fill-rule:nonzero;fill:rgb(100%,96.862745%,90.588235%);fill-opacity:1;stroke-width:4;stroke-linecap:butt;stroke-linejoin:miter;stroke:rgb(99.607843%,41.176471%,22.352941%);stroke-opacity:1;stroke-miterlimit:4;" d="M 1072.709516 192.194 L 1213.89143 192.194 C 1218.308496 192.194 1221.896872 195.772125 1221.896872 200.194 L 1221.896872 320.498687 C 1221.896872 324.920562 1218.308496 328.498687 1213.89143 328.498687 L 1072.709516 328.498687 C 1068.292451 328.498687 1064.711892 324.920562 1064.711892 320.498687 L 1064.711892 200.194 C 1064.711892 195.772125 1068.292451 192.194 1072.709516 192.194 Z M 1072.709516 192.194 " transform="matrix(0.49966,0,0,0.5,-123.689358,-95.097)"/>
<path style="fill-rule:nonzero;fill:rgb(100%,96.862745%,90.588235%);fill-opacity:1;stroke-width:4;stroke-linecap:butt;stroke-linejoin:miter;stroke:rgb(99.607843%,41.176471%,22.352941%);stroke-opacity:1;stroke-miterlimit:4;" d="M 257.545985 565.3815 L 556.499216 565.3815 C 560.916281 565.3815 564.496841 568.959625 564.496841 573.3815 L 564.496841 693.686187 C 564.496841 698.108062 560.916281 701.686187 556.499216 701.686187 L 257.545985 701.686187 C 253.12892 701.686187 249.548361 698.108062 249.548361 693.686187 L 249.548361 573.3815 C 249.548361 568.959625 253.12892 565.3815 257.545985 565.3815 Z M 257.545985 565.3815 " transform="matrix(0.49966,0,0,0.5,-123.689358,-95.097)"/>
<path style="fill-rule:nonzero;fill:rgb(100%,96.862745%,90.588235%);fill-opacity:1;stroke-width:4;stroke-linecap:butt;stroke-linejoin:miter;stroke:rgb(99.607843%,41.176471%,22.352941%);stroke-opacity:1;stroke-miterlimit:4;" d="M 596.448249 565.3815 L 681.044821 565.3815 C 685.461886 565.3815 689.042445 568.959625 689.042445 573.3815 L 689.042445 693.686187 C 689.042445 698.108062 685.461886 701.686187 681.044821 701.686187 L 596.448249 701.686187 C 592.023366 701.686187 588.442807 698.108062 588.442807 693.686187 L 588.442807 573.3815 C 588.442807 568.959625 592.023366 565.3815 596.448249 565.3815 Z M 596.448249 565.3815 " transform="matrix(0.49966,0,0,0.5,-123.689358,-95.097)"/>
<path style="fill-rule:nonzero;fill:rgb(100%,96.862745%,90.588235%);fill-opacity:1;stroke-width:4;stroke-linecap:butt;stroke-linejoin:miter;stroke:rgb(99.607843%,41.176471%,22.352941%);stroke-opacity:1;stroke-miterlimit:4;" d="M 720.993854 565.3815 L 829.872558 565.3815 C 834.289623 565.3815 837.870182 568.959625 837.870182 573.3815 L 837.870182 693.686187 C 837.870182 698.108062 834.289623 701.686187 829.872558 701.686187 L 720.993854 701.686187 C 716.576788 701.686187 712.996229 698.108062 712.996229 693.686187 L 712.996229 573.3815 C 712.996229 568.959625 716.576788 565.3815 720.993854 565.3815 Z M 720.993854 565.3815 " transform="matrix(0.49966,0,0,0.5,-123.689358,-95.097)"/>
<path style="fill-rule:nonzero;fill:rgb(100%,96.862745%,90.588235%);fill-opacity:1;stroke-width:4;stroke-linecap:butt;stroke-linejoin:miter;stroke:rgb(99.607843%,41.176471%,22.352941%);stroke-opacity:1;stroke-miterlimit:4;" d="M 869.821591 565.3815 L 1032.760483 565.3815 C 1037.177548 565.3815 1040.758108 568.959625 1040.758108 573.3815 L 1040.758108 693.686187 C 1040.758108 698.108062 1037.177548 701.686187 1032.760483 701.686187 L 869.821591 701.686187 C 865.404526 701.686187 861.823966 698.108062 861.823966 693.686187 L 861.823966 573.3815 C 861.823966 568.959625 865.404526 565.3815 869.821591 565.3815 Z M 869.821591 565.3815 " transform="matrix(0.49966,0,0,0.5,-123.689358,-95.097)"/>
<path style="fill-rule:nonzero;fill:rgb(100%,96.862745%,90.588235%);fill-opacity:1;stroke-width:4;stroke-linecap:butt;stroke-linejoin:miter;stroke:rgb(99.607843%,41.176471%,22.352941%);stroke-opacity:1;stroke-miterlimit:4;" d="M 1072.709516 565.3815 L 1213.89143 565.3815 C 1218.308496 565.3815 1221.896872 568.959625 1221.896872 573.3815 L 1221.896872 693.686187 C 1221.896872 698.108062 1218.308496 701.686187 1213.89143 701.686187 L 1072.709516 701.686187 C 1068.292451 701.686187 1064.711892 698.108062 1064.711892 693.686187 L 1064.711892 573.3815 C 1064.711892 568.959625 1068.292451 565.3815 1072.709516 565.3815 Z M 1072.709516 565.3815 " transform="matrix(0.49966,0,0,0.5,-123.689358,-95.097)"/>
<path style="fill-rule:nonzero;fill:rgb(100%,96.862745%,90.588235%);fill-opacity:1;stroke-width:4;stroke-linecap:butt;stroke-linejoin:miter;stroke:rgb(99.607843%,41.176471%,22.352941%);stroke-opacity:1;stroke-miterlimit:4;" d="M 257.545985 351.123687 L 556.499216 351.123687 C 560.916281 351.123687 564.496841 354.701812 564.496841 359.123687 L 564.496841 534.7565 C 564.496841 539.178375 560.916281 542.7565 556.499216 542.7565 L 257.545985 542.7565 C 253.12892 542.7565 249.548361 539.178375 249.548361 534.7565 L 249.548361 359.123687 C 249.548361 354.701812 253.12892 351.123687 257.545985 351.123687 Z M 257.545985 351.123687 " transform="matrix(0.49966,0,0,0.5,-123.689358,-95.097)"/>
<path style="fill-rule:nonzero;fill:rgb(100%,96.862745%,90.588235%);fill-opacity:1;stroke-width:4;stroke-linecap:butt;stroke-linejoin:miter;stroke:rgb(99.607843%,41.176471%,22.352941%);stroke-opacity:1;stroke-miterlimit:4;" d="M 596.448249 351.123687 L 681.044821 351.123687 C 685.461886 351.123687 689.042445 354.701812 689.042445 359.123687 L 689.042445 534.7565 C 689.042445 539.178375 685.461886 542.7565 681.044821 542.7565 L 596.448249 542.7565 C 592.023366 542.7565 588.442807 539.178375 588.442807 534.7565 L 588.442807 359.123687 C 588.442807 354.701812 592.023366 351.123687 596.448249 351.123687 Z M 596.448249 351.123687 " transform="matrix(0.49966,0,0,0.5,-123.689358,-95.097)"/>
<path style="fill-rule:nonzero;fill:rgb(100%,96.862745%,90.588235%);fill-opacity:1;stroke-width:4;stroke-linecap:butt;stroke-linejoin:miter;stroke:rgb(99.607843%,41.176471%,22.352941%);stroke-opacity:1;stroke-miterlimit:4;" d="M 720.993854 351.123687 L 829.872558 351.123687 C 834.289623 351.123687 837.870182 354.701812 837.870182 359.123687 L 837.870182 534.7565 C 837.870182 539.178375 834.289623 542.7565 829.872558 542.7565 L 720.993854 542.7565 C 716.576788 542.7565 712.996229 539.178375 712.996229 534.7565 L 712.996229 359.123687 C 712.996229 354.701812 716.576788 351.123687 720.993854 351.123687 Z M 720.993854 351.123687 " transform="matrix(0.49966,0,0,0.5,-123.689358,-95.097)"/>
<path style="fill-rule:nonzero;fill:rgb(100%,96.862745%,90.588235%);fill-opacity:1;stroke-width:4;stroke-linecap:butt;stroke-linejoin:miter;stroke:rgb(99.607843%,41.176471%,22.352941%);stroke-opacity:1;stroke-miterlimit:4;" d="M 869.821591 351.123687 L 1032.760483 351.123687 C 1037.177548 351.123687 1040.758108 354.701812 1040.758108 359.123687 L 1040.758108 534.7565 C 1040.758108 539.178375 1037.177548 542.7565 1032.760483 542.7565 L 869.821591 542.7565 C 865.404526 542.7565 861.823966 539.178375 861.823966 534.7565 L 861.823966 359.123687 C 861.823966 354.701812 865.404526 351.123687 869.821591 351.123687 Z M 869.821591 351.123687 " transform="matrix(0.49966,0,0,0.5,-123.689358,-95.097)"/>
<path style="fill-rule:nonzero;fill:rgb(99.215686%,82.745098%,65.098039%);fill-opacity:1;stroke-width:4;stroke-linecap:butt;stroke-linejoin:miter;stroke:rgb(99.607843%,41.176471%,22.352941%);stroke-opacity:1;stroke-miterlimit:4;" d="M 1072.709516 351.123687 L 1213.89143 351.123687 C 1218.308496 351.123687 1221.896872 354.701812 1221.896872 359.123687 L 1221.896872 534.7565 C 1221.896872 539.178375 1218.308496 542.7565 1213.89143 542.7565 L 1072.709516 542.7565 C 1068.292451 542.7565 1064.711892 539.178375 1064.711892 534.7565 L 1064.711892 359.123687 C 1064.711892 354.701812 1068.292451 351.123687 1072.709516 351.123687 Z M 1072.709516 351.123687 " transform="matrix(0.49966,0,0,0.5,-123.689358,-95.097)"/>
<path style="fill-rule:nonzero;fill:rgb(100%,96.862745%,90.588235%);fill-opacity:1;stroke-width:4;stroke-linecap:butt;stroke-linejoin:miter;stroke:rgb(99.607843%,41.176471%,22.352941%);stroke-opacity:1;stroke-miterlimit:4;" d="M 257.545985 724.303375 L 556.499216 724.303375 C 560.916281 724.303375 564.496841 727.889312 564.496841 732.303375 L 564.496841 879.803375 C 564.496841 884.22525 560.916281 887.803375 556.499216 887.803375 L 257.545985 887.803375 C 253.12892 887.803375 249.548361 884.22525 249.548361 879.803375 L 249.548361 732.303375 C 249.548361 727.889312 253.12892 724.303375 257.545985 724.303375 Z M 257.545985 724.303375 " transform="matrix(0.49966,0,0,0.5,-123.689358,-95.097)"/>
<path style="fill-rule:nonzero;fill:rgb(100%,96.862745%,90.588235%);fill-opacity:1;stroke-width:4;stroke-linecap:butt;stroke-linejoin:miter;stroke:rgb(99.607843%,41.176471%,22.352941%);stroke-opacity:1;stroke-miterlimit:4;" d="M 596.448249 724.303375 L 681.044821 724.303375 C 685.461886 724.303375 689.042445 727.889312 689.042445 732.303375 L 689.042445 879.803375 C 689.042445 884.22525 685.461886 887.803375 681.044821 887.803375 L 596.448249 887.803375 C 592.023366 887.803375 588.442807 884.22525 588.442807 879.803375 L 588.442807 732.303375 C 588.442807 727.889312 592.023366 724.303375 596.448249 724.303375 Z M 596.448249 724.303375 " transform="matrix(0.49966,0,0,0.5,-123.689358,-95.097)"/>
<path style="fill-rule:nonzero;fill:rgb(100%,96.862745%,90.588235%);fill-opacity:1;stroke-width:4;stroke-linecap:butt;stroke-linejoin:miter;stroke:rgb(99.607843%,41.176471%,22.352941%);stroke-opacity:1;stroke-miterlimit:4;" d="M 720.993854 724.303375 L 829.872558 724.303375 C 834.289623 724.303375 837.870182 727.889312 837.870182 732.303375 L 837.870182 879.803375 C 837.870182 884.22525 834.289623 887.803375 829.872558 887.803375 L 720.993854 887.803375 C 716.576788 887.803375 712.996229 884.22525 712.996229 879.803375 L 712.996229 732.303375 C 712.996229 727.889312 716.576788 724.303375 720.993854 724.303375 Z M 720.993854 724.303375 " transform="matrix(0.49966,0,0,0.5,-123.689358,-95.097)"/>
<path style="fill-rule:nonzero;fill:rgb(100%,96.862745%,90.588235%);fill-opacity:1;stroke-width:4;stroke-linecap:butt;stroke-linejoin:miter;stroke:rgb(99.607843%,41.176471%,22.352941%);stroke-opacity:1;stroke-miterlimit:4;" d="M 869.821591 724.303375 L 1032.760483 724.303375 C 1037.177548 724.303375 1040.758108 727.889312 1040.758108 732.303375 L 1040.758108 879.803375 C 1040.758108 884.22525 1037.177548 887.803375 1032.760483 887.803375 L 869.821591 887.803375 C 865.404526 887.803375 861.823966 884.22525 861.823966 879.803375 L 861.823966 732.303375 C 861.823966 727.889312 865.404526 724.303375 869.821591 724.303375 Z M 869.821591 724.303375 " transform="matrix(0.49966,0,0,0.5,-123.689358,-95.097)"/>
<path style="fill-rule:nonzero;fill:rgb(100%,96.862745%,90.588235%);fill-opacity:1;stroke-width:4;stroke-linecap:butt;stroke-linejoin:miter;stroke:rgb(99.607843%,41.176471%,22.352941%);stroke-opacity:1;stroke-miterlimit:4;" d="M 1072.709516 724.303375 L 1213.89143 724.303375 C 1218.308496 724.303375 1221.896872 727.889312 1221.896872 732.303375 L 1221.896872 879.803375 C 1221.896872 884.22525 1218.308496 887.803375 1213.89143 887.803375 L 1072.709516 887.803375 C 1068.292451 887.803375 1064.711892 884.22525 1064.711892 879.803375 L 1064.711892 732.303375 C 1064.711892 727.889312 1068.292451 724.303375 1072.709516 724.303375 Z M 1072.709516 724.303375 " transform="matrix(0.49966,0,0,0.5,-123.689358,-95.097)"/>
<path style="fill:none;stroke-width:4;stroke-linecap:butt;stroke-linejoin:miter;stroke:rgb(99.607843%,41.176471%,22.352941%);stroke-opacity:1;stroke-miterlimit:4;" d="M 1089.627267 351.865875 L 1089.627267 544.7565 " transform="matrix(0.49966,0,0,0.5,-123.689358,-95.097)"/>
<path style="fill:none;stroke-width:4;stroke-linecap:butt;stroke-linejoin:miter;stroke:rgb(99.607843%,41.176471%,22.352941%);stroke-opacity:1;stroke-miterlimit:4;" d="M 1116.356375 351.865875 L 1116.356375 544.7565 " transform="matrix(0.49966,0,0,0.5,-123.689358,-95.097)"/>
<path style="fill:none;stroke-width:4;stroke-linecap:butt;stroke-linejoin:miter;stroke:rgb(99.607843%,41.176471%,22.352941%);stroke-opacity:1;stroke-miterlimit:4;" d="M 1143.077665 351.865875 L 1143.077665 544.7565 " transform="matrix(0.49966,0,0,0.5,-123.689358,-95.097)"/>
<path style="fill:none;stroke-width:4;stroke-linecap:butt;stroke-linejoin:miter;stroke:rgb(99.607843%,41.176471%,22.352941%);stroke-opacity:1;stroke-miterlimit:4;" d="M 1169.806774 351.865875 L 1169.806774 544.7565 " transform="matrix(0.49966,0,0,0.5,-123.689358,-95.097)"/>
<path style="fill:none;stroke-width:4;stroke-linecap:butt;stroke-linejoin:miter;stroke:rgb(99.607843%,41.176471%,22.352941%);stroke-opacity:1;stroke-miterlimit:4;" d="M 1196.5437 351.865875 L 1196.5437 544.7565 " transform="matrix(0.49966,0,0,0.5,-123.689358,-95.097)"/>
<path style="fill:none;stroke-width:4;stroke-linecap:butt;stroke-linejoin:miter;stroke:rgb(99.607843%,41.176471%,22.352941%);stroke-opacity:1;stroke-miterlimit:4;" d="M 1223.890415 389.10025 L 1062.710531 389.10025 " transform="matrix(0.49966,0,0,0.5,-123.689358,-95.097)"/>
<path style="fill:none;stroke-width:4;stroke-linecap:butt;stroke-linejoin:miter;stroke:rgb(99.607843%,41.176471%,22.352941%);stroke-opacity:1;stroke-miterlimit:4;" d="M 1223.890415 427.545562 L 1062.710531 427.545562 " transform="matrix(0.49966,0,0,0.5,-123.689358,-95.097)"/>
<path style="fill:none;stroke-width:4;stroke-linecap:butt;stroke-linejoin:miter;stroke:rgb(99.607843%,41.176471%,22.352941%);stroke-opacity:1;stroke-miterlimit:4;" d="M 1223.890415 465.990875 L 1062.710531 465.990875 " transform="matrix(0.49966,0,0,0.5,-123.689358,-95.097)"/>
<path style="fill:none;stroke-width:4;stroke-linecap:butt;stroke-linejoin:miter;stroke:rgb(99.607843%,41.176471%,22.352941%);stroke-opacity:1;stroke-miterlimit:4;" d="M 1223.890415 504.428375 L 1062.710531 504.428375 " transform="matrix(0.49966,0,0,0.5,-123.689358,-95.097)"/>
<path style=" stroke:none;fill-rule:nonzero;fill:rgb(11.372549%,11.372549%,11.372549%);fill-opacity:1;" d="M 552.71875 121.617188 L 549.632812 121.617188 L 541.71875 109.007812 L 541.71875 121.617188 L 538.628906 121.617188 L 538.628906 103.84375 L 541.71875 103.84375 L 549.65625 116.503906 L 549.65625 103.84375 L 552.71875 103.84375 Z M 564.078125 120.324219 C 563.207031 121.351562 561.972656 121.863281 560.371094 121.863281 C 558.9375 121.863281 557.851562 121.445312 557.113281 120.605469 C 556.382812 119.765625 556.011719 118.554688 556.011719 116.96875 L 556.011719 108.410156 L 558.980469 108.410156 L 558.980469 116.929688 C 558.980469 118.609375 559.675781 119.445312 561.066406 119.445312 C 562.503906 119.445312 563.476562 118.929688 563.984375 117.894531 L 563.984375 108.410156 L 566.945312 108.410156 L 566.945312 121.617188 L 564.152344 121.617188 Z M 572.75 108.410156 L 572.835938 109.789062 C 573.765625 108.707031 575.03125 108.167969 576.644531 108.167969 C 578.40625 108.167969 579.617188 108.84375 580.265625 110.191406 C 581.226562 108.84375 582.574219 108.167969 584.3125 108.167969 C 585.773438 108.167969 586.851562 108.570312 587.5625 109.375 C 588.277344 110.179688 588.640625 111.367188 588.660156 112.941406 L 588.660156 121.617188 L 585.691406 121.617188 L 585.691406 113.023438 C 585.691406 112.1875 585.511719 111.574219 585.144531 111.179688 C 584.777344 110.789062 584.175781 110.59375 583.328125 110.59375 C 582.65625 110.59375 582.101562 110.777344 581.671875 111.144531 C 581.246094 111.503906 580.953125 111.976562 580.777344 112.5625 L 580.792969 121.617188 L 577.828125 121.617188 L 577.828125 112.925781 C 577.785156 111.371094 576.992188 110.59375 575.445312 110.59375 C 574.261719 110.59375 573.417969 111.078125 572.921875 112.046875 L 572.921875 121.617188 L 569.957031 121.617188 L 569.957031 108.410156 Z M 595.078125 115.015625 L 595.078125 121.617188 L 591.988281 121.617188 L 591.988281 103.84375 L 598.785156 103.84375 C 600.769531 103.84375 602.339844 104.363281 603.507812 105.394531 C 604.675781 106.429688 605.257812 107.796875 605.257812 109.496094 C 605.257812 111.238281 604.691406 112.59375 603.539062 113.5625 C 602.402344 114.53125 600.804688 115.015625 598.75 115.015625 Z M 595.078125 112.535156 L 598.785156 112.535156 C 599.882812 112.535156 600.71875 112.28125 601.296875 111.765625 C 601.871094 111.246094 602.160156 110.496094 602.160156 109.523438 C 602.160156 108.5625 601.871094 107.796875 601.28125 107.226562 C 600.699219 106.648438 599.894531 106.351562 598.867188 106.335938 L 595.078125 106.335938 Z M 612.496094 117.371094 L 615.179688 108.410156 L 618.335938 108.410156 L 613.09375 123.621094 C 612.289062 125.84375 610.921875 126.953125 608.992188 126.953125 C 608.5625 126.953125 608.085938 126.878906 607.566406 126.734375 L 607.566406 124.4375 L 608.128906 124.476562 C 608.878906 124.476562 609.4375 124.335938 609.8125 124.058594 C 610.191406 123.792969 610.496094 123.335938 610.714844 122.691406 L 611.140625 121.558594 L 606.503906 108.410156 L 609.703125 108.410156 Z M 559.761719 146.980469 L 552.878906 146.980469 L 551.441406 151.117188 L 548.234375 151.117188 L 554.9375 133.34375 L 557.710938 133.34375 L 564.433594 151.117188 L 561.210938 151.117188 Z M 553.746094 144.488281 L 558.890625 144.488281 L 556.316406 137.117188 Z M 573.082031 140.621094 C 572.691406 140.554688 572.289062 140.523438 571.871094 140.523438 C 570.511719 140.523438 569.597656 141.042969 569.128906 142.085938 L 569.128906 151.117188 L 566.167969 151.117188 L 566.167969 137.910156 L 568.996094 137.910156 L 569.070312 139.386719 C 569.785156 138.238281 570.773438 137.667969 572.042969 137.667969 C 572.46875 137.667969 572.816406 137.722656 573.089844 137.835938 Z M 581.867188 140.621094 C 581.476562 140.554688 581.070312 140.523438 580.65625 140.523438 C 579.296875 140.523438 578.382812 141.042969 577.914062 142.085938 L 577.914062 151.117188 L 574.945312 151.117188 L 574.945312 137.910156 L 577.777344 137.910156 L 577.847656 139.386719 C 578.566406 138.238281 579.558594 137.667969 580.828125 137.667969 C 581.25 137.667969 581.601562 137.722656 581.875 137.835938 Z M 591.257812 151.117188 C 591.125 150.867188 591.015625 150.457031 590.914062 149.886719 C 589.96875 150.871094 588.816406 151.363281 587.453125 151.363281 C 586.128906 151.363281 585.042969 150.984375 584.203125 150.226562 C 583.371094 149.46875 582.949219 148.535156 582.949219 147.421875 C 582.949219 146.011719 583.46875 144.933594 584.507812 144.183594 C 585.558594 143.429688 587.058594 143.050781 589 143.050781 L 590.820312 143.050781 L 590.820312 142.183594 C 590.820312 141.5 590.625 140.953125 590.246094 140.546875 C 589.859375 140.132812 589.28125 139.925781 588.5 139.925781 C 587.828125 139.925781 587.273438 140.09375 586.84375 140.4375 C 586.40625 140.769531 586.191406 141.199219 586.191406 141.71875 L 583.230469 141.71875 C 583.230469 140.996094 583.46875 140.320312 583.949219 139.691406 C 584.429688 139.058594 585.078125 138.5625 585.902344 138.203125 C 586.730469 137.84375 587.65625 137.667969 588.671875 137.667969 C 590.214844 137.667969 591.449219 138.058594 592.367188 138.839844 C 593.289062 139.613281 593.757812 140.703125 593.78125 142.109375 L 593.78125 148.066406 C 593.78125 149.253906 593.949219 150.203125 594.28125 150.910156 L 594.28125 151.117188 Z M 588 148.984375 C 588.585938 148.984375 589.136719 148.839844 589.644531 148.554688 C 590.164062 148.269531 590.558594 147.886719 590.820312 147.40625 L 590.820312 144.917969 L 589.21875 144.917969 C 588.121094 144.917969 587.296875 145.109375 586.742188 145.492188 C 586.191406 145.875 585.914062 146.414062 585.914062 147.113281 C 585.914062 147.683594 586.101562 148.140625 586.476562 148.480469 C 586.855469 148.816406 587.367188 148.984375 588 148.984375 Z M 601.308594 146.871094 L 603.992188 137.910156 L 607.152344 137.910156 L 601.90625 153.121094 C 601.101562 155.34375 599.734375 156.453125 597.808594 156.453125 C 597.375 156.453125 596.902344 156.378906 596.378906 156.234375 L 596.378906 153.9375 L 596.941406 153.976562 C 597.691406 153.976562 598.25 153.835938 598.625 153.558594 C 599.007812 153.292969 599.308594 152.835938 599.527344 152.191406 L 599.953125 151.058594 L 595.320312 137.910156 L 598.515625 137.910156 Z M 601.308594 146.871094 "/>
<path style=" stroke:none;fill-rule:nonzero;fill:rgb(11.372549%,11.372549%,11.372549%);fill-opacity:1;" d="M 679.359375 189.03125 L 679.359375 171.257812 L 684.605469 171.257812 C 686.175781 171.257812 687.5625 171.609375 688.777344 172.308594 C 689.996094 173.007812 690.941406 174.003906 691.605469 175.289062 C 692.277344 176.574219 692.605469 178.046875 692.605469 179.707031 L 692.605469 180.597656 C 692.605469 182.28125 692.269531 183.761719 691.597656 185.042969 C 690.925781 186.320312 689.972656 187.304688 688.726562 187.996094 C 687.492188 188.6875 686.074219 189.03125 684.472656 189.03125 Z M 682.445312 173.75 L 682.445312 186.566406 L 684.460938 186.566406 C 686.078125 186.566406 687.320312 186.0625 688.179688 185.054688 C 689.046875 184.035156 689.492188 182.578125 689.507812 180.683594 L 689.507812 179.695312 C 689.507812 177.765625 689.09375 176.292969 688.253906 175.277344 C 687.414062 174.257812 686.199219 173.75 684.605469 173.75 Z M 703.28125 189.03125 C 703.152344 188.78125 703.039062 188.371094 702.9375 187.800781 C 702 188.785156 700.839844 189.277344 699.476562 189.277344 C 698.152344 189.277344 697.066406 188.898438 696.234375 188.140625 C 695.394531 187.386719 694.972656 186.449219 694.972656 185.335938 C 694.972656 183.925781 695.492188 182.847656 696.539062 182.097656 C 697.585938 181.34375 699.082031 180.964844 701.023438 180.964844 L 702.84375 180.964844 L 702.84375 180.097656 C 702.84375 179.414062 702.652344 178.867188 702.269531 178.460938 C 701.890625 178.046875 701.304688 177.839844 700.523438 177.839844 C 699.851562 177.839844 699.296875 178.011719 698.867188 178.351562 C 698.4375 178.683594 698.222656 179.113281 698.222656 179.632812 L 695.253906 179.632812 C 695.253906 178.910156 695.492188 178.234375 695.972656 177.605469 C 696.453125 176.972656 697.105469 176.476562 697.925781 176.117188 C 698.757812 175.761719 699.679688 175.582031 700.695312 175.582031 C 702.238281 175.582031 703.472656 175.972656 704.390625 176.753906 C 705.3125 177.527344 705.78125 178.617188 705.804688 180.023438 L 705.804688 185.980469 C 705.804688 187.167969 705.972656 188.117188 706.304688 188.824219 L 706.304688 189.03125 Z M 700.023438 186.898438 C 700.609375 186.898438 701.160156 186.753906 701.667969 186.46875 C 702.195312 186.183594 702.582031 185.800781 702.84375 185.320312 L 702.84375 182.832031 L 701.246094 182.832031 C 700.144531 182.832031 699.320312 183.023438 698.765625 183.40625 C 698.214844 183.789062 697.9375 184.328125 697.9375 185.027344 C 697.9375 185.597656 698.125 186.054688 698.5 186.398438 C 698.882812 186.730469 699.390625 186.898438 700.023438 186.898438 Z M 716.308594 185.445312 C 716.308594 184.914062 716.089844 184.511719 715.648438 184.234375 C 715.21875 183.960938 714.5 183.714844 713.492188 183.503906 C 712.480469 183.292969 711.640625 183.023438 710.96875 182.699219 C 709.488281 181.980469 708.746094 180.945312 708.746094 179.585938 C 708.746094 178.445312 709.222656 177.492188 710.1875 176.726562 C 711.148438 175.964844 712.367188 175.582031 713.847656 175.582031 C 715.425781 175.582031 716.695312 175.972656 717.664062 176.753906 C 718.636719 177.535156 719.128906 178.546875 719.128906 179.792969 L 716.164062 179.792969 C 716.164062 179.222656 715.953125 178.75 715.53125 178.375 C 715.105469 177.992188 714.546875 177.800781 713.847656 177.800781 C 713.195312 177.800781 712.660156 177.953125 712.246094 178.253906 C 711.84375 178.554688 711.636719 178.957031 711.636719 179.460938 C 711.636719 179.917969 711.828125 180.273438 712.210938 180.523438 C 712.589844 180.777344 713.367188 181.035156 714.53125 181.292969 C 715.691406 181.546875 716.605469 181.851562 717.261719 182.210938 C 717.929688 182.558594 718.417969 182.984375 718.738281 183.480469 C 719.0625 183.976562 719.226562 184.578125 719.226562 185.285156 C 719.226562 186.472656 718.734375 187.4375 717.75 188.179688 C 716.765625 188.910156 715.476562 189.277344 713.882812 189.277344 C 712.800781 189.277344 711.835938 189.082031 710.992188 188.691406 C 710.144531 188.300781 709.488281 187.761719 709.015625 187.078125 C 708.542969 186.398438 708.308594 185.660156 708.308594 184.871094 L 711.1875 184.871094 C 711.226562 185.570312 711.492188 186.113281 711.976562 186.492188 C 712.46875 186.867188 713.113281 187.054688 713.921875 187.054688 C 714.699219 187.054688 715.292969 186.910156 715.699219 186.617188 C 716.105469 186.316406 716.308594 185.925781 716.308594 185.445312 Z M 726.109375 183.367188 L 724.789062 184.722656 L 724.789062 189.03125 L 721.824219 189.03125 L 721.824219 170.28125 L 724.789062 170.28125 L 724.789062 181.097656 L 725.710938 179.9375 L 729.359375 175.824219 L 732.921875 175.824219 L 728.019531 181.332031 L 733.449219 189.03125 L 730.019531 189.03125 Z M 687.535156 214.394531 L 680.652344 214.394531 L 679.214844 218.53125 L 676.007812 218.53125 L 682.710938 200.757812 L 685.484375 200.757812 L 692.207031 218.53125 L 688.984375 218.53125 Z M 681.519531 211.90625 L 686.667969 211.90625 L 684.089844 204.53125 Z M 700.855469 208.035156 C 700.464844 207.96875 700.058594 207.9375 699.644531 207.9375 C 698.285156 207.9375 697.371094 208.457031 696.902344 209.5 L 696.902344 218.53125 L 693.9375 218.53125 L 693.9375 205.324219 L 696.765625 205.324219 L 696.84375 206.800781 C 697.558594 205.65625 698.546875 205.082031 699.816406 205.082031 C 700.238281 205.082031 700.589844 205.136719 700.863281 205.253906 Z M 709.640625 208.035156 C 709.25 207.96875 708.84375 207.9375 708.429688 207.9375 C 707.070312 207.9375 706.15625 208.457031 705.6875 209.5 L 705.6875 218.53125 L 702.71875 218.53125 L 702.71875 205.324219 L 705.550781 205.324219 L 705.621094 206.800781 C 706.339844 205.65625 707.332031 205.082031 708.597656 205.082031 C 709.023438 205.082031 709.375 205.136719 709.648438 205.253906 Z M 719.03125 218.53125 C 718.902344 218.28125 718.789062 217.871094 718.6875 217.300781 C 717.742188 218.285156 716.589844 218.777344 715.226562 218.777344 C 713.902344 218.777344 712.816406 218.398438 711.976562 217.640625 C 711.144531 216.886719 710.722656 215.949219 710.722656 214.835938 C 710.722656 213.425781 711.242188 212.347656 712.28125 211.597656 C 713.332031 210.84375 714.832031 210.464844 716.773438 210.464844 L 718.59375 210.464844 L 718.59375 209.597656 C 718.59375 208.914062 718.398438 208.367188 718.019531 207.960938 C 717.632812 207.546875 717.054688 207.339844 716.273438 207.339844 C 715.601562 207.339844 715.046875 207.511719 714.617188 207.851562 C 714.1875 208.183594 713.964844 208.613281 713.964844 209.132812 L 711.003906 209.132812 C 711.003906 208.410156 711.242188 207.734375 711.722656 207.105469 C 712.203125 206.472656 712.851562 205.976562 713.675781 205.617188 C 714.503906 205.261719 715.429688 205.082031 716.445312 205.082031 C 717.988281 205.082031 719.222656 205.472656 720.140625 206.253906 C 721.0625 207.027344 721.53125 208.117188 721.554688 209.523438 L 721.554688 215.480469 C 721.554688 216.667969 721.71875 217.617188 722.054688 218.324219 L 722.054688 218.53125 Z M 715.773438 216.398438 C 716.359375 216.398438 716.910156 216.253906 717.417969 215.96875 C 717.9375 215.683594 718.332031 215.300781 718.59375 214.820312 L 718.59375 212.332031 L 716.992188 212.332031 C 715.894531 212.332031 715.070312 212.523438 714.515625 212.90625 C 713.964844 213.289062 713.6875 213.828125 713.6875 214.527344 C 713.6875 215.097656 713.875 215.554688 714.25 215.898438 C 714.628906 216.230469 715.140625 216.398438 715.773438 216.398438 Z M 729.082031 214.285156 L 731.765625 205.324219 L 734.925781 205.324219 L 729.679688 220.535156 C 728.875 222.757812 727.507812 223.867188 725.582031 223.867188 C 725.148438 223.867188 724.671875 223.792969 724.152344 223.648438 L 724.152344 221.351562 L 724.714844 221.390625 C 725.464844 221.390625 726.023438 221.25 726.398438 220.972656 C 726.78125 220.707031 727.082031 220.25 727.300781 219.605469 L 727.726562 218.472656 L 723.09375 205.324219 L 726.289062 205.324219 Z M 729.082031 214.285156 "/>
<path style="fill:none;stroke-width:4;stroke-linecap:butt;stroke-linejoin:miter;stroke:rgb(38.431373%,38.823529%,42.352941%);stroke-opacity:1;stroke-miterlimit:4;" d="M 1530.340931 201.47525 L 1547.446309 201.47525 C 1551.30831 201.47525 1554.451071 204.608062 1554.451071 208.47525 L 1554.451071 871.139312 C 1554.451071 875.0065 1551.30831 878.139312 1547.446309 878.139312 L 1530.340931 878.139312 " transform="matrix(0.49966,0,0,0.5,-123.689358,-95.097)"/>
<path style="fill:none;stroke-width:4;stroke-linecap:butt;stroke-linejoin:miter;stroke:rgb(38.431373%,38.823529%,42.352941%);stroke-opacity:1;stroke-miterlimit:4;" d="M 1554.451071 537.803375 L 1575.340272 537.803375 " transform="matrix(0.49966,0,0,0.5,-123.689358,-95.097)"/>
<path style="fill:none;stroke-width:4;stroke-linecap:butt;stroke-linejoin:miter;stroke:rgb(38.431373%,38.823529%,42.352941%);stroke-opacity:1;stroke-miterlimit:4;" d="M 1257.99954 355.1315 L 1275.097101 355.1315 C 1278.966919 355.1315 1282.101863 358.264312 1282.101863 362.1315 L 1282.101863 537.60025 C 1282.101863 541.467437 1278.966919 544.60025 1275.097101 544.60025 L 1257.99954 544.60025 " transform="matrix(0.49966,0,0,0.5,-123.689358,-95.097)"/>
<path style="fill:none;stroke-width:4;stroke-linecap:butt;stroke-linejoin:miter;stroke:rgb(38.431373%,38.823529%,42.352941%);stroke-opacity:1;stroke-miterlimit:4;" d="M 1282.101863 447.865875 L 1302.998881 447.865875 " transform="matrix(0.49966,0,0,0.5,-123.689358,-95.097)"/>
</g>
</svg>
